<?xml version="1.0" encoding="UTF-8"?>
<svg width="150px" height="52px" viewBox="0 0 150 52" version="1.1" xmlns="http://www.w3.org/2000/svg" xmlns:xlink="http://www.w3.org/1999/xlink">
    <title>gn-logo</title>
    <g id="gn-logo" stroke="none" stroke-width="1" fill="none" fill-rule="evenodd">
        <rect id="ring-fill-3" fill="#B73935" fill-rule="nonzero" x="135" y="37" width="14" height="14" rx="3.5"></rect>
        <rect id="ring-fill-2" fill="#F1651F" fill-rule="nonzero" x="135" y="19" width="14" height="14" rx="3.5"></rect>
        <rect id="ring-fill-1" fill="#C96331" fill-rule="nonzero" x="135" y="1" width="14" height="14" rx="3.5"></rect>
        <path d="M136,40.4994709 L136,47.5005291 C136,48.8834512 137.117281,50 138.499471,50 L145.500529,50 C146.883451,50 148,48.8827186 148,47.5005291 L148,40.4994709 C148,39.1165488 146.882719,38 145.500529,38 L138.499471,38 C137.116549,38 136,39.1172814 136,40.4994709 Z M134,40.4994709 C134,38.0144818 136.01021,36 138.499471,36 L145.500529,36 C147.985518,36 150,38.0102102 150,40.4994709 L150,47.5005291 C150,49.9855182 147.98979,52 145.500529,52 L138.499471,52 C136.014482,52 134,49.9897898 134,47.5005291 L134,40.4994709 Z" id="ring-outline-3" fill="#FFA200" fill-rule="nonzero"></path>
        <path d="M136,22.4994709 L136,29.5005291 C136,30.8834512 137.117281,32 138.499471,32 L145.500529,32 C146.883451,32 148,30.8827186 148,29.5005291 L148,22.4994709 C148,21.1165488 146.882719,20 145.500529,20 L138.499471,20 C137.116549,20 136,21.1172814 136,22.4994709 Z M134,22.4994709 C134,20.0144818 136.01021,18 138.499471,18 L145.500529,18 C147.985518,18 150,20.0102102 150,22.4994709 L150,29.5005291 C150,31.9855182 147.98979,34 145.500529,34 L138.499471,34 C136.014482,34 134,31.9897898 134,29.5005291 L134,22.4994709 Z" id="ring-outline-2" fill="#FFA200" fill-rule="nonzero"></path>
        <path d="M136,4.49947095 L136,11.5005291 C136,12.8834512 137.117281,14 138.499471,14 L145.500529,14 C146.883451,14 148,12.8827186 148,11.5005291 L148,4.49947095 C148,3.11654876 146.882719,2 145.500529,2 L138.499471,2 C137.116549,2 136,3.11728143 136,4.49947095 Z M134,4.49947095 C134,2.01448176 136.01021,0 138.499471,0 L145.500529,0 C147.985518,0 150,2.01021019 150,4.49947095 L150,11.5005291 C150,13.9855182 147.98979,16 145.500529,16 L138.499471,16 C136.014482,16 134,13.9897898 134,11.5005291 L134,4.49947095 Z" id="ring-outline-1" fill="#FFA200" fill-rule="nonzero"></path>
        <path d="M121.917304,21.7270645 L121.917304,31.5258549 L122.921502,31.5258549 L122.921502,24.6537447 C123.732033,23.2566728 124.765401,22.5578896 126.021605,22.5578896 C127.739262,22.5578896 128.597134,23.6869215 128.597134,25.9454799 L128.597134,31.5258549 L129.602289,31.5258549 L129.602289,25.5518271 C129.602289,24.2956987 129.282858,23.3120612 128.643997,22.601409 C128.005135,21.8912514 127.151567,21.535678 126.081379,21.535678 C124.791223,21.535678 123.751639,22.1676985 122.963104,23.431245 L122.921502,23.431245 L122.921502,21.7270645 L121.917304,21.7270645" id="Fill-19" fill="#D1D3D4" fill-rule="nonzero"></path>
        <path d="M119.124198,25.1957592 C119.124198,25.915313 118.875062,26.5315083 118.378701,27.0473122 C117.880427,27.5626215 117.286516,27.8212653 116.594097,27.8212653 C115.895462,27.8212653 115.302029,27.5616325 114.81571,27.0423668 C114.327957,26.5231011 114.085037,25.8935533 114.085037,25.1542179 C114.085037,24.4425767 114.324609,23.8367667 114.804234,23.3402499 C115.284336,22.8417548 115.874422,22.5930018 116.574013,22.5930018 C117.279343,22.5930018 117.880427,22.8471948 118.378701,23.3560751 C118.875062,23.8649555 119.124198,24.4781835 119.124198,25.1957592 L119.124198,25.1957592 Z M119.928035,33.7814461 C119.928035,34.3506601 119.639687,34.8100866 119.061556,35.1587364 C118.483902,35.5078808 117.706844,35.6824529 116.728947,35.6824529 C114.575181,35.6824529 113.49782,35.0776321 113.49782,33.8670013 C113.49782,32.6558759 114.640693,32.051055 116.92357,32.051055 C118.926706,32.051055 119.928035,32.6296654 119.928035,33.7814461 L119.928035,33.7814461 Z M120.932711,21.7270645 L117.135408,21.7270645 C115.84047,21.7270645 114.845836,22.0519765 114.152461,22.7008113 C113.459565,23.3511297 113.113833,24.1908565 113.113833,25.2219697 C113.113833,25.9454799 113.328062,26.6042055 113.757955,27.1981465 C114.186891,27.7910984 114.818101,28.2154127 115.647282,28.4715837 L115.647282,28.514114 C114.38247,28.8909526 113.750304,29.4240653 113.750304,30.1114741 C113.750304,30.7939376 114.262923,31.2597931 115.288161,31.5080515 L115.288161,31.5505818 C113.44761,31.8557122 112.528529,32.6474687 112.528529,33.9253568 C112.528529,34.7161243 112.88765,35.3491338 113.606369,35.8283419 C114.324609,36.3080444 115.345544,36.5474012 116.66726,36.5474012 C117.994236,36.5474012 119.031908,36.2941973 119.779318,35.7858115 C120.524816,35.2774257 120.899238,34.5811152 120.899238,33.6939127 C120.899238,32.9417193 120.665403,32.3393711 120.201081,31.883901 C119.735325,31.431398 118.832981,31.1643471 117.496919,31.08621 C116.158945,31.0080729 115.362281,30.8829546 115.106449,30.7118442 C114.847749,30.5402392 114.720072,30.3132459 114.720072,30.0274026 C114.720072,29.7870567 114.821927,29.5719324 115.019419,29.387964 C115.218824,29.2020174 115.710403,29.0046965 116.491765,28.795012 C117.273605,28.5848331 117.900511,28.3716869 118.370572,28.1545844 C118.84111,27.9379764 119.245658,27.5913048 119.586129,27.115064 C119.924688,26.6383286 120.095401,25.9929556 120.095401,25.1749886 C120.095401,24.2660264 119.659771,23.3986054 118.788031,22.5751985 L120.932711,22.5751985 L120.932711,21.7270645 L120.932711,21.7270645 Z" id="Fill-18" fill="#D1D3D4" fill-rule="nonzero"></path>
        <polygon id="Fill-17" fill="#D1D3D4" fill-rule="nonzero" points="110.180619 18.4373929 111.201553 18.4373929 111.201553 16.6540862 110.180619 16.6540862"></polygon>
        <polygon id="Fill-16" fill="#D1D3D4" fill-rule="nonzero" points="110.180619 31.5258549 111.201553 31.5258549 111.201553 21.7270645 110.180619 21.7270645"></polygon>
        <path d="M105.75067,21.535678 C104.900449,21.535678 104.177905,21.797289 103.583993,22.320511 C102.989125,22.843733 102.691691,23.4787207 102.691691,24.2249797 C102.691691,24.7511689 102.851407,25.2298823 103.170837,25.6596365 C103.492181,26.0893907 104.187947,26.5245847 105.262439,26.9652187 C106.336931,27.4053582 106.997789,27.7718114 107.245969,28.0601275 C107.491759,28.347949 107.615131,28.6629702 107.615131,29.0037074 C107.615131,29.5031915 107.426725,29.912175 107.053259,30.2326361 C106.675967,30.5526027 106.196821,30.7118442 105.611039,30.7118442 C104.742168,30.7118442 103.748012,30.4136373 102.626658,29.8127728 L102.626658,30.8335007 C103.568213,31.4353543 104.515985,31.7335612 105.472364,31.7335612 C106.352233,31.7335612 107.091036,31.4734338 107.688773,30.9492228 C108.286988,30.4274844 108.587291,29.7855731 108.587291,29.0249726 C108.587291,28.456253 108.421837,27.9404491 108.091408,27.4775609 C107.762414,27.0156617 107.06091,26.5676096 105.987374,26.1343937 C104.917186,25.7016723 104.26111,25.3441208 104.022971,25.0647064 C103.78292,24.784303 103.664807,24.478678 103.664807,24.146348 C103.664807,23.6780198 103.859909,23.2853561 104.25059,22.965884 C104.642227,22.6478956 105.122329,22.4876651 105.690897,22.4876651 C106.459825,22.4876651 107.32487,22.8229624 108.285075,23.4925678 L108.285075,22.3679867 C107.371255,21.8141033 106.527728,21.535678 105.75067,21.535678" id="Fill-15" fill="#D1D3D4" fill-rule="nonzero"></path>
        <path d="M95.3710871,23.3120612 C95.9372636,22.8096098 96.6100763,22.5578896 97.3876126,22.5578896 C99.0311502,22.5578896 100.030566,23.5168002 100.38873,25.4321487 L94.2420815,25.4321487 C94.4266627,24.5202193 94.8029979,23.814018 95.3710871,23.3120612 L95.3710871,23.3120612 Z M95.209459,29.5719324 C94.4539195,28.81331 94.0766279,27.8850608 94.0766279,26.7916357 C94.0766279,26.6205253 94.0881045,26.4494149 94.1077102,26.2812717 L101.57751,26.2812717 C101.57751,24.8194152 101.172483,23.6641727 100.361474,22.8130716 C99.5518986,21.9619704 98.5596553,21.535678 97.3856998,21.535678 C96.1347559,21.535678 95.0989972,22.007468 94.2755548,22.9505533 C93.4506777,23.8921551 93.0394347,25.0810262 93.0394347,26.5181557 C93.0394347,28.0324333 93.4855856,29.2821327 94.3783655,30.262803 C95.2706673,31.2444624 96.3987165,31.7335612 97.7649042,31.7335612 C99.1110079,31.7335612 100.324653,31.3018289 101.409665,30.4373752 L101.409665,29.2579003 C100.262967,30.2276907 99.0899675,30.7118442 97.8877989,30.7118442 C96.8582567,30.7118442 95.9649986,30.332533 95.209459,29.5719324 L95.209459,29.5719324 Z" id="Fill-14" fill="#D1D3D4" fill-rule="nonzero"></path>
        <path d="M90.4380834,29.8187072 C89.61751,30.4146264 88.7687235,30.7118442 87.8926802,30.7118442 C86.7636746,30.7118442 85.8235539,30.3176968 85.0713617,29.528413 C84.3182131,28.7381401 83.9418779,27.7490626 83.9418779,26.5601915 C83.9418779,25.3935747 84.29526,24.4346641 84.999155,23.6854379 C85.7035283,22.933739 86.6001338,22.5578896 87.6889714,22.5578896 C88.618572,22.5578896 89.5347832,22.8625255 90.4380834,23.4722917 L90.4380834,29.8187072 L90.4380834,29.8187072 Z M90.4380834,16.6535917 L90.4380834,22.3234782 C89.44584,21.7982781 88.515283,21.535678 87.6444998,21.535678 C86.2759212,21.535678 85.13783,22.020326 84.2307044,22.9876438 C83.3235787,23.9549615 82.8707332,25.1665814 82.8707332,26.6249761 C82.8707332,28.0621057 83.3312298,29.2717474 84.2522229,30.2568685 C85.1727378,31.2424842 86.3036562,31.7335612 87.6444998,31.7335612 C88.6443942,31.7335612 89.5759075,31.4150782 90.4380834,30.7766287 L90.4380834,31.5258549 L91.4594963,31.5258549 L91.4594963,16.6535917 L90.4380834,16.6535917 L90.4380834,16.6535917 Z" id="Fill-13" fill="#D1D3D4" fill-rule="nonzero"></path>
        <path d="M80.1968026,21.535678 C78.8593063,21.535678 77.7594703,22.0247768 76.8982509,23.0029745 C76.0379878,23.9816666 75.6076172,25.2412567 75.6076172,26.7847121 C75.6076172,28.2638775 76.0346405,29.458683 76.8872525,30.3686343 C77.7403427,31.2790801 78.8593063,31.7335612 80.2422306,31.7335612 C81.0522838,31.7335612 81.9283271,31.5673962 82.8741861,31.2320989 L82.8741861,30.141641 C81.9842753,30.5219413 81.1350106,30.7118442 80.326392,30.7118442 C79.2169921,30.7118442 78.3318632,30.3473691 77.6710052,29.6189136 C77.009669,28.8889744 76.6801964,27.9058314 76.6801964,26.6675064 C76.6801964,25.4499521 77.0106254,24.4613692 77.6719616,23.6997795 C78.3332978,22.9381899 79.1926045,22.5578896 80.2489253,22.5578896 C80.9819899,22.5578896 81.802085,22.7651013 82.7072979,23.1805139 L82.7072979,22.0213151 C81.7676554,21.6978867 80.9298672,21.535678 80.1968026,21.535678" id="Fill-12" fill="#FFFFFF" fill-rule="nonzero"></path>
        <polygon id="Fill-11" fill="#FFFFFF" fill-rule="nonzero" points="71.7585636 18.4373929 72.7799766 18.4373929 72.7799766 16.6540862 71.7585636 16.6540862"></polygon>
        <polygon id="Fill-10" fill="#FFFFFF" fill-rule="nonzero" points="71.7585636 31.5258549 72.7799766 31.5258549 72.7799766 21.7270645 71.7585636 21.7270645"></polygon>
        <path d="M68.7980919,25.1957592 C68.7980919,25.915313 68.5499115,26.5315083 68.0521161,27.0473122 C67.554799,27.5626215 66.9604093,27.8212653 66.2675126,27.8212653 C65.5679213,27.8212653 64.9754444,27.5616325 64.4881692,27.0423668 C64.0023286,26.5231011 63.7584519,25.8935533 63.7584519,25.1542179 C63.7584519,24.4425767 63.9989812,23.8367667 64.4786054,23.3402499 C64.9577513,22.8417548 65.5483155,22.5930018 66.2479068,22.5930018 C66.9541929,22.5930018 67.554799,22.8471948 68.0521161,23.3560751 C68.5499115,23.8649555 68.7980919,24.4781835 68.7980919,25.1957592 L68.7980919,25.1957592 Z M69.6009722,33.7814461 C69.6009722,34.3506601 69.3126239,34.8100866 68.7349709,35.1587364 C68.1573179,35.5078808 67.3797816,35.6824529 66.4018839,35.6824529 C64.2485962,35.6824529 63.1726696,35.0776321 63.1726696,33.8670013 C63.1726696,32.6558759 64.3141082,32.051055 66.5979416,32.051055 C68.6001214,32.051055 69.6009722,32.6296654 69.6009722,33.7814461 L69.6009722,33.7814461 Z M70.6056485,21.7270645 L66.8093014,21.7270645 C65.5134076,21.7270645 64.5197297,22.0519765 63.8273112,22.7008113 C63.1344145,23.3511297 62.787727,24.1908565 62.787727,25.2219697 C62.787727,25.9454799 63.0019559,26.6042055 63.4323266,27.1981465 C63.8612626,27.7910984 64.4900819,28.2154127 65.3216536,28.4715837 L65.3216536,28.514114 C64.0568422,28.8909526 63.423241,29.4240653 63.423241,30.1114741 C63.423241,30.7939376 63.9363384,31.2597931 64.9615769,31.5080515 L64.9615769,31.5505818 C63.1215033,31.8557122 62.2019448,32.6474687 62.2019448,33.9253568 C62.2019448,34.7161243 62.5610652,35.3491338 63.2793059,35.8283419 C63.9989812,36.3080444 65.0184814,36.5474012 66.3406756,36.5474012 C67.6690863,36.5474012 68.7067577,36.2941973 69.4536898,35.7858115 C70.1987092,35.2774257 70.5721753,34.5811152 70.5721753,33.6939127 C70.5721753,32.9417193 70.3392969,32.3393711 69.8744967,31.883901 C69.4096964,31.431398 68.5078308,31.1643471 67.1703346,31.08621 C65.8333165,31.0080729 65.0352181,30.8829546 64.7798648,30.7118442 C64.5225988,30.5402392 64.394444,30.3132459 64.394444,30.0274026 C64.394444,29.7870567 64.4939075,29.5719324 64.6933125,29.387964 C64.8927176,29.2020174 65.3833401,29.0046965 66.1661364,28.795012 C66.9474982,28.5848331 67.5739266,28.3716869 68.0444651,28.1545844 C68.5150037,27.9379764 68.9200302,27.5913048 69.260023,27.115064 C69.5985813,26.6383286 69.7688168,25.9929556 69.7688168,25.1749886 C69.7688168,24.2660264 69.333186,23.3986054 68.4624028,22.5751985 L70.6056485,22.5751985 L70.6056485,21.7270645 L70.6056485,21.7270645 Z" id="Fill-9" fill="#FFFFFF" fill-rule="nonzero"></path>
        <path d="M59.6092008,29.6020993 C58.7188118,30.4462769 57.8408558,30.8676239 56.9772454,30.8676239 C56.441673,30.8676239 55.9960003,30.7108551 55.6402273,30.3978121 C55.2834979,30.08378 55.1056113,29.6980398 55.1056113,29.2415805 C55.1056113,28.4270752 55.5326346,27.7594479 56.3857249,27.2347424 C57.2388151,26.7110258 58.3137853,26.4726582 59.6092008,26.522112 L59.6092008,29.6020993 L59.6092008,29.6020993 Z M60.8567975,30.7118442 C60.7052114,30.7118442 60.6301356,30.5451846 60.6301356,30.2108764 L60.6301356,24.0968941 C60.6301356,23.26508 60.3518293,22.6305868 59.796173,22.1924255 C59.2405167,21.7552532 58.5347088,21.535678 57.6768367,21.535678 C56.7099374,21.535678 55.6904372,21.8828442 54.6212053,22.5761875 L54.6212053,23.648842 C55.6555294,22.8175224 56.6190814,22.4021099 57.5104268,22.4021099 C58.9100877,22.4021099 59.6092008,23.0707263 59.6092008,24.4089481 L59.6092008,25.6566693 C57.8418121,25.7496426 56.4823192,26.1042268 55.5292873,26.7189385 C54.5772118,27.3361228 54.100935,28.1778277 54.100935,29.2450423 C54.100935,29.936902 54.348159,30.5239194 54.8411725,31.0080729 C55.3346641,31.4922263 55.937183,31.7335612 56.6496855,31.7335612 C57.6299742,31.7335612 58.6155229,31.3290285 59.6092008,30.517985 C59.6503251,31.0090619 59.7148807,31.334963 59.8047804,31.4942044 C59.8942018,31.6529514 60.0563081,31.7335612 60.2887082,31.7335612 C60.6937348,31.7335612 61.3321179,31.3952967 62.2043357,30.7167895 L62.2043357,29.8464014 C61.4985279,30.4240226 61.0485515,30.7118442 60.8567975,30.7118442 L60.8567975,30.7118442 Z" id="Fill-8" fill="#FFFFFF" fill-rule="nonzero"></path>
        <path d="M38.8954626,21.7270645 L38.8954626,31.5258549 L39.8996607,31.5258549 L39.8996607,24.6537447 C40.7039756,23.2566728 41.6560511,22.5578896 42.7544526,22.5578896 C43.5123831,22.5578896 44.1144237,22.8506565 44.5658347,23.437674 C45.0162893,24.0232078 45.2405602,24.8589783 45.2405602,25.9454799 L45.2405602,31.5258549 L46.2619732,31.5258549 L46.2619732,24.8461203 C46.7210352,24.0454621 47.1657515,23.4628955 47.5975567,23.1013877 C48.0288837,22.7388908 48.5357646,22.5578896 49.1191559,22.5578896 C49.9000395,22.5578896 50.5078185,22.8615364 50.9372327,23.4688299 C51.3699943,24.076618 51.5856578,24.9079376 51.5856578,25.9667451 L51.5856578,31.5258549 L52.5903341,31.5258549 L52.5903341,25.5092967 C52.5903341,24.3085567 52.2890747,23.3471734 51.6860776,22.6226742 C51.0845151,21.8976804 50.2926332,21.535678 49.3133009,21.535678 C48.0116689,21.535678 46.9166147,22.320511 46.0262257,23.8877042 C45.4347052,22.320511 44.4132922,21.535678 42.9629432,21.535678 C41.7186939,21.535678 40.7111485,22.1751166 39.9417414,23.4520156 L39.8996607,23.4520156 L39.8996607,21.7270645 L38.8954626,21.7270645" id="Fill-7" fill="#FFFFFF" fill-rule="nonzero"></path>
        <polyline id="Fill-6" fill="#FFFFFF" fill-rule="nonzero" points="36.7718227 21.7270645 31.549036 26.3856194 37.5297532 31.5258549 38.914112 31.5258549 32.926222 26.3801794 38.1112317 21.7270645 36.7718227 21.7270645"></polyline>
        <polygon id="Fill-5" fill="#FFFFFF" fill-rule="nonzero" points="30.3942082 31.5258549 31.3979281 31.5258549 31.3979281 16.6535917 30.3942082 16.6535917"></polygon>
        <path d="M26.3673737,21.535678 C25.0298774,21.535678 23.9295632,22.0247768 23.0693001,23.0029745 C22.2095153,23.9816666 21.7786664,25.2412567 21.7786664,26.7847121 C21.7786664,28.2638775 22.2047334,29.458683 23.05878,30.3686343 C23.9118702,31.2790801 25.0298774,31.7335612 26.4128017,31.7335612 C27.2223767,31.7335612 28.0993764,31.5673962 29.0447572,31.2320989 L29.0447572,30.141641 C28.1543682,30.5219413 27.3055817,30.7118442 26.4969631,30.7118442 C25.387085,30.7118442 24.5019561,30.3473691 23.8410981,29.6189136 C23.1811965,28.8889744 22.8502893,27.9058314 22.8502893,26.6675064 C22.8502893,25.4499521 23.1811965,24.4613692 23.8420545,23.6997795 C24.5038689,22.9381899 25.3631756,22.5578896 26.4194964,22.5578896 C27.1520828,22.5578896 27.9721779,22.7651013 28.877869,23.1805139 L28.877869,22.0213151 C27.9382265,21.6978867 27.1004383,21.535678 26.3673737,21.535678" id="Fill-4" fill="#FFFFFF" fill-rule="nonzero"></path>
        <path d="M18.6843016,29.6020993 C17.7929562,30.4462769 16.9159566,30.8676239 16.0523462,30.8676239 C15.5167738,30.8676239 15.0720575,30.7108551 14.7148499,30.3978121 C14.3585987,30.08378 14.1816685,29.6980398 14.1816685,29.2415805 C14.1816685,28.4270752 14.606779,27.7594479 15.4603475,27.2347424 C16.3129595,26.7110258 17.3888861,26.4726582 18.6843016,26.522112 L18.6843016,29.6020993 L18.6843016,29.6020993 Z M19.9318983,30.7118442 C19.7812685,30.7118442 19.7057146,30.5451846 19.7057146,30.2108764 L19.7057146,24.0968941 C19.7057146,23.26508 19.4278864,22.6305868 18.8712738,22.1924255 C18.3165738,21.7552532 17.6093314,21.535678 16.7519375,21.535678 C15.7850382,21.535678 14.765538,21.8828442 13.6953497,22.5761875 L13.6953497,23.648842 C14.7306302,22.8175224 15.6941822,22.4021099 16.5855275,22.4021099 C17.9842321,22.4021099 18.6843016,23.0707263 18.6843016,24.4089481 L18.6843016,25.6566693 C16.9159566,25.7496426 15.5559854,26.1042268 14.6043881,26.7189385 C13.6527908,27.3361228 13.1760358,28.1778277 13.1760358,29.2450423 C13.1760358,29.936902 13.4227816,30.5239194 13.9153169,31.0080729 C14.4092867,31.4922263 15.0122838,31.7335612 15.7243081,31.7335612 C16.7041186,31.7335612 17.6915801,31.3290285 18.6843016,30.517985 C18.7254259,31.0090619 18.7899815,31.334963 18.8789248,31.4942044 C18.9693026,31.6529514 19.1309307,31.7335612 19.3647654,31.7335612 C19.7688356,31.7335612 20.4081751,31.3952967 21.2789583,30.7167895 L21.2789583,29.8464014 C20.5726723,30.4240226 20.1241305,30.7118442 19.9318983,30.7118442 L19.9318983,30.7118442 Z" id="Fill-3" fill="#FFFFFF" fill-rule="nonzero"></path>
        <polygon id="Fill-2" fill="#FFFFFF" fill-rule="nonzero" points="10.4603972 31.5258549 11.4818101 31.5258549 11.4818101 16.6535917 10.4603972 16.6535917"></polygon>
        <path d="M6.89262467,29.7539226 C6.25232882,30.3018716 5.31794637,30.5753515 4.08613,30.5753515 L1.10605251,30.5753515 L1.10605251,24.5137903 L3.60172395,24.5137903 C6.43595362,24.5137903 7.85139479,25.5295728 7.85139479,27.5606434 C7.85139479,28.4760346 7.53292052,29.2074573 6.89262467,29.7539226 L6.89262467,29.7539226 Z M1.10605251,17.6055788 L2.61091513,17.6055788 C5.2567381,17.6055788 6.57988868,18.5976235 6.57988868,20.5802292 C6.57988868,22.5559114 5.27108379,23.5449889 2.65156125,23.5449889 L1.10605251,23.5449889 L1.10605251,17.6055788 L1.10605251,17.6055788 Z M5.71627829,23.8110507 C7.09585524,23.0366031 7.78492644,21.9337817 7.78492644,20.4991249 C7.78492644,19.2988794 7.37989986,18.3582667 6.57032489,17.6767923 C5.76074992,16.995318 4.56862329,16.6535917 2.99729232,16.6535917 L0,16.6535917 L0,31.5258549 L4.21189386,31.5258549 C5.69428157,31.5258549 6.86967157,31.1707761 7.73758567,30.4566622 C8.60645614,29.7440319 9.04017409,28.7841322 9.04017409,27.5779522 C9.04017409,25.563696 7.93220883,24.3085567 5.71627829,23.8110507 L5.71627829,23.8110507 Z" id="Fill-1" fill="#FFFFFF" fill-rule="nonzero"></path>
    </g>
</svg>